<svg id="svg" version="1.1" xmlns="http://www.w3.org/2000/svg" xmlns:xlink="http://www.w3.org/1999/xlink" width="400" height="480" viewBox="0, 0, 400,480"><g id="svgg"><path id="path0" d="M201.400 118.061 C 199.420 118.254,193.795 118.779,188.901 119.228 C 184.006 119.676,179.056 120.283,177.901 120.575 C 176.745 120.867,174.369 121.418,172.619 121.798 C 165.901 123.260,157.274 126.446,151.148 129.727 C 149.747 130.478,146.710 131.787,144.400 132.636 C 142.090 133.486,139.094 134.905,137.741 135.790 C 136.389 136.676,134.182 138.017,132.837 138.770 C 131.492 139.524,129.509 140.964,128.429 141.970 C 127.350 142.977,125.547 144.657,124.421 145.706 C 121.922 148.033,118.620 150.298,115.321 151.950 C 113.852 152.685,112.385 153.793,111.721 154.669 C 110.577 156.179,107.388 159.448,102.735 163.883 C 101.243 165.305,99.583 167.391,98.853 168.762 C 97.169 171.921,93.283 177.064,89.762 180.794 C 85.415 185.399,82.160 190.992,80.019 197.538 C 78.868 201.059,76.523 206.186,74.410 209.800 C 73.120 212.006,70.292 219.865,69.660 223.000 C 66.505 238.646,64.806 257.360,65.763 265.929 C 66.979 276.824,67.280 279.478,67.810 284.000 C 69.578 299.062,72.651 311.440,75.357 314.400 C 77.250 316.471,80.800 323.363,80.800 324.969 C 80.800 326.666,86.634 336.050,92.297 343.461 C 100.328 353.971,101.688 355.590,104.032 357.431 C 105.411 358.514,108.353 361.139,110.570 363.264 C 112.786 365.389,116.062 368.179,117.849 369.464 C 120.555 371.409,124.184 374.356,126.161 376.213 C 129.264 379.128,139.769 385.116,145.691 387.345 C 147.097 387.874,149.316 388.798,150.623 389.399 C 151.931 390.000,153.885 390.757,154.967 391.082 C 156.049 391.406,159.109 392.540,161.767 393.602 C 166.088 395.328,169.579 396.360,175.200 397.572 C 181.340 398.896,183.133 399.208,187.953 399.789 C 195.053 400.645,217.440 401.095,221.813 400.469 C 223.566 400.218,227.033 399.733,229.517 399.390 C 234.378 398.720,244.836 395.730,253.000 392.677 C 255.640 391.690,260.860 390.132,264.600 389.215 C 268.340 388.298,272.030 387.385,272.800 387.186 C 275.695 386.436,286.366 379.651,289.765 376.397 C 291.544 374.694,294.260 372.534,295.800 371.597 C 300.667 368.636,301.997 367.589,303.076 365.872 C 303.654 364.952,305.678 362.490,307.575 360.400 C 309.472 358.310,311.649 355.848,312.412 354.928 C 313.655 353.431,317.118 349.504,321.166 345.000 C 321.957 344.120,323.604 342.561,324.824 341.536 C 326.448 340.172,327.399 338.937,328.366 336.936 C 329.093 335.431,330.392 332.760,331.251 331.000 C 332.111 329.240,333.336 326.180,333.973 324.200 C 334.610 322.220,336.509 316.730,338.193 312.000 C 339.877 307.270,341.954 300.880,342.809 297.800 C 343.664 294.720,344.740 291.120,345.200 289.800 C 345.961 287.615,346.909 282.322,348.066 273.800 C 348.687 269.232,348.677 251.429,348.051 246.800 C 346.946 238.617,345.939 232.946,345.006 229.647 C 344.470 227.751,343.645 224.490,343.172 222.400 C 341.844 216.527,338.176 205.811,336.052 201.600 C 334.998 199.510,333.708 196.720,333.185 195.400 C 331.867 192.074,326.998 184.873,323.295 180.773 C 321.550 178.840,318.818 175.089,317.032 172.173 C 313.349 166.161,311.528 163.698,307.807 159.696 C 306.321 158.099,304.500 155.998,303.758 155.027 C 302.074 152.822,300.908 151.989,296.412 149.784 C 293.599 148.405,292.033 147.270,289.115 144.497 C 284.954 140.542,277.756 135.971,269.896 132.293 C 267.423 131.136,264.050 129.440,262.400 128.524 C 259.551 126.944,250.916 123.848,246.600 122.860 C 242.014 121.810,232.417 120.036,230.000 119.791 C 228.570 119.646,226.629 119.362,225.687 119.159 C 223.807 118.755,208.642 117.575,206.400 117.658 C 205.630 117.687,203.380 117.868,201.400 118.061 M214.400 192.409 C 225.723 194.093,244.875 201.826,248.000 205.976 C 248.110 206.122,250.384 207.898,253.053 209.922 C 259.172 214.564,261.020 216.992,267.415 228.800 C 277.245 246.952,275.665 280.675,264.280 295.700 C 262.783 297.675,260.385 300.845,258.950 302.745 C 253.304 310.222,242.876 318.148,235.000 320.949 C 221.825 325.635,204.101 326.456,187.800 323.137 C 171.371 319.791,162.801 314.874,158.000 306.038 C 156.080 302.504,154.781 300.513,149.951 293.701 C 145.378 287.250,141.355 277.732,140.612 271.600 C 140.465 270.390,139.987 267.330,139.549 264.800 C 138.097 256.412,141.326 239.232,145.675 232.200 C 146.356 231.100,147.778 228.760,148.835 227.000 C 149.893 225.240,151.478 222.900,152.359 221.800 C 153.239 220.700,155.209 218.168,156.736 216.174 C 159.334 212.781,161.556 210.627,164.731 208.425 C 165.463 207.917,167.173 206.524,168.531 205.330 C 171.863 202.400,181.805 196.800,183.674 196.800 C 183.861 196.800,186.125 195.924,188.707 194.853 C 192.426 193.309,194.230 192.803,197.400 192.415 C 199.600 192.145,201.670 191.872,202.000 191.809 C 203.945 191.433,209.724 191.713,214.400 192.409 " stroke="none" fill="#e7b346" fill-rule="evenodd"></path></g></svg>