<svg id="svg" version="1.1" xmlns="http://www.w3.org/2000/svg" xmlns:xlink="http://www.w3.org/1999/xlink" width="400" height="367.4418604651163" viewBox="0, 0, 400,367.4418604651163"><g id="svgg"><path id="path0" d="M150.551 81.741 C 147.154 83.286,120.641 109.002,115.901 115.350 C 112.849 119.438,112.445 122.641,114.443 126.899 C 115.418 128.976,142.604 156.829,145.113 158.323 C 146.904 159.388,148.590 161.202,149.603 163.154 C 149.993 163.906,153.884 167.989,158.250 172.227 C 166.856 180.582,168.022 182.140,168.007 185.274 C 167.991 188.512,167.756 188.778,143.194 213.419 C 113.222 243.487,113.580 243.068,113.546 248.043 C 113.516 252.498,114.414 254.137,119.996 259.821 C 138.100 278.257,143.808 283.797,145.956 285.023 C 146.866 285.542,148.189 286.576,148.897 287.321 C 151.274 289.821,153.400 289.742,159.092 286.940 C 162.451 285.287,162.610 285.145,174.901 272.874 C 181.729 266.056,187.813 260.062,188.419 259.554 C 189.026 259.046,190.515 257.474,191.728 256.060 C 192.941 254.647,195.754 251.816,197.978 249.769 C 200.202 247.723,204.312 243.790,207.111 241.029 C 215.498 232.756,218.939 232.204,224.326 238.266 C 225.607 239.707,227.563 241.493,228.675 242.235 C 229.802 242.988,231.507 244.654,232.535 246.008 C 233.547 247.341,241.820 255.763,250.919 264.723 C 260.018 273.683,267.840 281.561,268.300 282.230 C 268.761 282.899,270.084 284.051,271.241 284.791 C 272.399 285.532,274.062 286.684,274.937 287.352 C 279.469 290.811,286.895 287.958,294.301 279.914 C 298.857 274.966,303.628 270.178,311.110 263.046 C 314.692 259.631,317.248 256.879,317.834 255.806 C 320.532 250.865,321.013 246.101,319.094 243.346 C 318.474 242.456,317.416 240.895,316.743 239.876 C 316.070 238.858,309.339 231.872,301.785 224.351 C 280.725 203.382,278.218 200.930,276.917 200.030 C 276.252 199.571,275.153 198.372,274.476 197.365 C 273.798 196.359,272.277 194.757,271.096 193.805 C 265.161 189.024,264.849 182.595,270.310 177.624 C 272.901 175.265,274.004 174.037,275.639 171.692 C 276.414 170.580,278.366 168.621,279.976 167.337 C 281.833 165.858,283.479 164.144,284.475 162.653 C 285.710 160.805,286.734 159.839,289.265 158.137 C 291.036 156.947,293.133 155.167,293.925 154.181 C 294.718 153.196,300.100 147.675,305.886 141.912 C 318.479 129.370,319.203 128.405,320.216 122.822 C 320.754 119.852,320.477 118.723,318.706 116.677 C 317.909 115.756,316.706 114.150,316.033 113.108 C 313.869 109.758,287.703 84.201,285.110 82.904 C 278.618 79.658,273.102 82.367,261.765 94.368 C 253.102 103.536,242.106 114.645,239.818 116.538 C 238.363 117.741,235.946 120.208,234.447 122.020 C 232.947 123.832,230.663 126.191,229.371 127.263 C 228.079 128.335,225.699 130.545,224.081 132.174 C 217.490 138.812,214.655 137.618,198.713 121.490 C 196.287 119.036,193.764 116.659,193.107 116.210 C 192.451 115.760,191.403 114.651,190.780 113.744 C 189.351 111.667,169.977 92.198,164.354 87.188 C 158.354 81.843,154.056 80.147,150.551 81.741 " stroke="none" fill="#32c0bb" fill-rule="evenodd"></path></g></svg>